HIERARCHY
ROOT Hips
{
    OFFSET   0.000000   0.000000   0.000000
    CHANNELS 6 Xposition Yposition Zposition Zrotation Xrotation Yrotation
    JOINT Chest
    {
        OFFSET   0.000000   8.007240   0.000000
        CHANNELS 3 Zrotation Xrotation Yrotation
        JOINT Chest2
        {
            OFFSET   0.000000  22.077100   0.000000
            CHANNELS 3 Zrotation Xrotation Yrotation
            JOINT Neck
            {
                OFFSET   0.000000  23.254800   0.000000
                CHANNELS 3 Zrotation Xrotation Yrotation
                JOINT Head
                {
                    OFFSET   0.000000  14.370000   1.956600
                    CHANNELS 3 Zrotation Xrotation Yrotation
                    End Site
                    {
                        OFFSET   0.000000  19.566000   0.000000
                    }
                }
            }
            JOINT LeftCollar
            {
                OFFSET   3.911900  19.017000  -0.467064
                CHANNELS 3 Zrotation Xrotation Yrotation
                JOINT LeftShoulder
                {
                    OFFSET  10.383700   0.000000   0.000000
                    CHANNELS 3 Zrotation Xrotation Yrotation
                    JOINT LeftElbow
                    {
                        OFFSET  26.662100   0.001476   0.000517
                        CHANNELS 3 Zrotation Xrotation Yrotation
                        JOINT LeftWrist
                        {
                            OFFSET  28.869000  -0.000025  -0.000106
                            CHANNELS 3 Zrotation Xrotation Yrotation
                            JOINT LeftFinger0
                            {
                                OFFSET   2.044660  -2.323460   3.252850
                                CHANNELS 3 Zrotation Xrotation Yrotation
                                JOINT LeftFinger01
                                {
                                    OFFSET   3.088130   0.000000   0.000000
                                    CHANNELS 3 Zrotation Xrotation Yrotation
                                    JOINT LeftFinger02
                                    {
                                        OFFSET   2.639460   0.000000   0.000000
                                        CHANNELS 3 Zrotation Xrotation Yrotation
                                        End Site
                                        {
                                            OFFSET   2.582190   0.000000   0.000000
                                        }
                                    }
                                }
                            }
                            JOINT LeftFinger1
                            {
                                OFFSET   8.364480   0.000000   3.252850
                                CHANNELS 3 Zrotation Xrotation Yrotation
                                JOINT LeftFinger11
                                {
                                    OFFSET   4.646930   0.000000   0.000000
                                    CHANNELS 3 Zrotation Xrotation Yrotation
                                    JOINT LeftFinger12
                                    {
                                        OFFSET   2.323460   0.000000   0.000000
                                        CHANNELS 3 Zrotation Xrotation Yrotation
                                        End Site
                                        {
                                            OFFSET   2.273050   0.000000   0.000000
                                        }
                                    }
                                }
                            }
                            JOINT LeftFinger2
                            {
                                OFFSET   8.364490   0.000015   1.078090
                                CHANNELS 3 Zrotation Xrotation Yrotation
                                JOINT LeftFinger21
                                {
                                    OFFSET   5.111620   0.000000   0.000000
                                    CHANNELS 3 Zrotation Xrotation Yrotation
                                    JOINT LeftFinger22
                                    {
                                        OFFSET   2.788160   0.000016   0.000000
                                        CHANNELS 3 Zrotation Xrotation Yrotation
                                        End Site
                                        {
                                            OFFSET   2.727660   0.000000   0.000000
                                        }
                                    }
                                }
                            }
                            JOINT LeftFinger3
                            {
                                OFFSET   7.899780   0.000017  -1.078090
                                CHANNELS 3 Zrotation Xrotation Yrotation
                                JOINT LeftFinger31
                                {
                                    OFFSET   4.646930   0.000000   0.000000
                                    CHANNELS 3 Zrotation Xrotation Yrotation
                                    JOINT LeftFinger32
                                    {
                                        OFFSET   2.323470   0.000000   0.000000
                                        CHANNELS 3 Zrotation Xrotation Yrotation
                                        End Site
                                        {
                                            OFFSET   2.273050   0.000000   0.000000
                                        }
                                    }
                                }
                            }
                            JOINT LeftFinger4
                            {
                                OFFSET   7.435090   0.000000  -3.252850
                                CHANNELS 3 Zrotation Xrotation Yrotation
                                JOINT LeftFinger41
                                {
                                    OFFSET   3.717550   0.000000   0.000000
                                    CHANNELS 3 Zrotation Xrotation Yrotation
                                    JOINT LeftFinger42
                                    {
                                        OFFSET   1.858770   0.000000   0.000000
                                        CHANNELS 3 Zrotation Xrotation Yrotation
                                        End Site
                                        {
                                            OFFSET   1.818440   0.000000   0.000000
                                        }
                                    }
                                }
                            }
                        }
                    }
                }
            }
            JOINT RightCollar
            {
                OFFSET  -3.911900  19.017000  -0.467063
                CHANNELS 3 Zrotation Xrotation Yrotation
                JOINT RightShoulder
                {
                    OFFSET -10.383700   0.000019   0.000000
                    CHANNELS 3 Zrotation Xrotation Yrotation
                    JOINT RightElbow
                    {
                        OFFSET -26.662100   0.001175   0.000102
                        CHANNELS 3 Zrotation Xrotation Yrotation
                        JOINT RightWrist
                        {
                            OFFSET -28.869000   0.000016  -0.000079
                            CHANNELS 3 Zrotation Xrotation Yrotation
                            JOINT RightFinger0
                            {
                                OFFSET  -2.044660  -2.323490   3.252850
                                CHANNELS 3 Zrotation Xrotation Yrotation
                                JOINT RightFinger01
                                {
                                    OFFSET  -3.088140   0.000000   0.000000
                                    CHANNELS 3 Zrotation Xrotation Yrotation
                                    JOINT RightFinger02
                                    {
                                        OFFSET  -2.639460   0.000000   0.000000
                                        CHANNELS 3 Zrotation Xrotation Yrotation
                                        End Site
                                        {
                                            OFFSET  -2.582190   0.000000   0.000000
                                        }
                                    }
                                }
                            }
                            JOINT RightFinger1
                            {
                                OFFSET  -8.364480   0.000000   3.252850
                                CHANNELS 3 Zrotation Xrotation Yrotation
                                JOINT RightFinger11
                                {
                                    OFFSET  -4.646930   0.000000   0.000000
                                    CHANNELS 3 Zrotation Xrotation Yrotation
                                    JOINT RightFinger12
                                    {
                                        OFFSET  -2.323470   0.000000   0.000000
                                        CHANNELS 3 Zrotation Xrotation Yrotation
                                        End Site
                                        {
                                            OFFSET  -2.273050   0.000000   0.000000
                                        }
                                    }
                                }
                            }
                            JOINT RightFinger2
                            {
                                OFFSET  -8.364480   0.000000   1.078090
                                CHANNELS 3 Zrotation Xrotation Yrotation
                                JOINT RightFinger21
                                {
                                    OFFSET  -5.111620   0.000000   0.000000
                                    CHANNELS 3 Zrotation Xrotation Yrotation
                                    JOINT RightFinger22
                                    {
                                        OFFSET  -2.788160   0.000000   0.000000
                                        CHANNELS 3 Zrotation Xrotation Yrotation
                                        End Site
                                        {
                                            OFFSET  -2.727660   0.000000   0.000000
                                        }
                                    }
                                }
                            }
                            JOINT RightFinger3
                            {
                                OFFSET  -7.899780   0.000000  -1.078090
                                CHANNELS 3 Zrotation Xrotation Yrotation
                                JOINT RightFinger31
                                {
                                    OFFSET  -4.646930   0.000000   0.000000
                                    CHANNELS 3 Zrotation Xrotation Yrotation
                                    JOINT RightFinger32
                                    {
                                        OFFSET  -2.323470   0.000000   0.000000
                                        CHANNELS 3 Zrotation Xrotation Yrotation
                                        End Site
                                        {
                                            OFFSET  -2.273050   0.000000   0.000000
                                        }
                                    }
                                }
                            }
                            JOINT RightFinger4
                            {
                                OFFSET  -7.435090   0.000000  -3.252850
                                CHANNELS 3 Zrotation Xrotation Yrotation
                                JOINT RightFinger41
                                {
                                    OFFSET  -3.717550   0.000000   0.000000
                                    CHANNELS 3 Zrotation Xrotation Yrotation
                                    JOINT RightFinger42
                                    {
                                        OFFSET  -1.858770   0.000000   0.000000
                                        CHANNELS 3 Zrotation Xrotation Yrotation
                                        End Site
                                        {
                                            OFFSET  -1.818440   0.000000   0.000000
                                        }
                                    }
                                }
                            }
                        }
                    }
                }
            }
        }
    }
    JOINT LeftHip
    {
        OFFSET   9.783040   0.000000   0.000000
        CHANNELS 3 Zrotation Xrotation Yrotation
        JOINT LeftKnee
        {
            OFFSET   0.000032 -41.789100  -0.002222
            CHANNELS 3 Zrotation Xrotation Yrotation
            JOINT LeftAnkle
            {
                OFFSET   0.000087 -41.133200  -0.000135
                CHANNELS 3 Zrotation Xrotation Yrotation
                JOINT LeftToe
                {
                    OFFSET   0.000000  -6.358960  14.674500
                    CHANNELS 3 Zrotation Xrotation Yrotation
                    End Site
                    {
                        OFFSET   0.000000   0.000000   3.913200
                    }
                }
            }
        }
    }
    JOINT RightHip
    {
        OFFSET  -9.783040   0.000000   0.000000
        CHANNELS 3 Zrotation Xrotation Yrotation
        JOINT RightKnee
        {
            OFFSET   0.000047 -41.789100  -0.000896
            CHANNELS 3 Zrotation Xrotation Yrotation
            JOINT RightAnkle
            {
                OFFSET  -0.000117 -41.133300  -0.000248
                CHANNELS 3 Zrotation Xrotation Yrotation
                JOINT RightToe
                {
                    OFFSET   0.000000  -6.358970  14.674500
                    CHANNELS 3 Zrotation Xrotation Yrotation
                    End Site
                    {
                        OFFSET   0.000000   0.000000   3.913200
                    }
                }
            }
        }
    }
}
MOTION
Frames: 4
Frame Time:   0.016667
 -0.034214  89.550600   2.716040  -2.179680  -2.174060  -0.424159   1.129890   2.715280  -0.909291   2.306720   5.411740  -1.875220   0.708127   0.337365  -0.002537   1.151550   0.672055   5.148050  -5.055290   1.862700   1.007730 -71.140000  14.185900  -5.589900  -2.206880  -3.863100  -9.059150   5.321520  -9.579670   7.821740  42.390900  28.639200 -62.516000 -21.581000  -0.011575  -0.000486  -5.790510  -0.005268  -0.002380 -32.280500   5.939270  -9.301050 -26.802000  -0.002969  -0.000514 -18.761400  -0.001408  -0.000417 -28.101200   2.206380  -4.124280 -33.241000  -0.002500  -0.007615 -22.138500  -0.000544  -0.000527 -28.133800  -0.478045   0.894277 -32.876000  -0.003586  -0.001966 -21.895400   0.000163  -0.004965 -32.233100  -0.540897   0.857708 -48.355800  -0.001107  -0.002115 -32.204900   0.000422  -0.010694   3.908110  -0.617645   6.996260  73.954000   6.301020   1.677820   1.304440  -3.361660   6.123870  -9.629460  -9.321100   3.474130 -40.304100  33.179400  67.673600  28.362200   0.003027  -0.003573   9.191580   0.004515  -0.000247  29.758400   7.073970  12.155500  24.964800  -0.001154   0.009270  17.477400   0.000000   0.000776  27.375800   5.005460   9.565430  30.739800  -0.007131   0.002788  20.472700  -0.009412   0.002503  27.621200   2.837610   5.404740  30.530400  -0.010003   0.001053  20.333300   0.007065   0.003353  31.537700   0.969842   1.579940  47.326500   0.004674   0.004452  31.519500   0.007619   0.006783   2.865890   5.105900   2.021590   1.448640  -0.026056   8.075080  -1.599030  -2.027680   1.687860  -0.000000   0.000000  -0.000000   2.011460   0.571099  -4.084160   0.906673   4.197050  -4.545610  -2.405960  -2.663190  -2.836220   0.000000   0.000000   0.000000
 -0.049850  89.550600   2.708160  -2.179800  -2.188380  -0.424269   1.132330   2.731910  -0.910938   2.311990   5.444900  -1.879000   0.703963   0.330909  -0.002535   1.147110   0.664140   5.179450  -5.067080   1.848600   1.016990 -71.116700  14.158200  -5.594570  -2.217020  -3.789090  -9.151460   5.331920  -9.598310   7.798180  42.388100  28.641800 -62.518600 -21.592900  -0.011575  -0.000484  -5.796470  -0.005272  -0.002389 -32.275700   5.953940  -9.325370 -26.801800  -0.002961  -0.000510 -18.761300  -0.001419  -0.000413 -28.099200   2.220380  -4.150240 -33.252200  -0.002501  -0.007604 -22.145900  -0.000548  -0.000520 -28.134000  -0.469274   0.877699 -32.903800  -0.003589  -0.001949 -21.913900   0.000157  -0.004953 -32.262500  -0.531359   0.841552 -48.399700  -0.001113  -0.002099 -32.234200   0.000392  -0.010692   3.896900  -0.625168   7.033840  73.936500   6.371710   1.724270   1.298940  -3.359590   6.177670  -9.616360  -9.324590   3.511060 -40.306500  33.192000  67.671400  28.367100   0.003012  -0.003569   9.191660   0.004518  -0.000244  29.752900   7.069100  12.150000  24.959700  -0.001158   0.009262  17.472800   0.000027   0.000771  27.380600   4.993200   9.539590  30.757100  -0.007135   0.002784  20.484200  -0.009416   0.002499  27.627800   2.826290   5.381160  30.561600  -0.009999   0.001031  20.354100   0.007063   0.003352  31.553700   0.966837   1.574110  47.350300   0.004675   0.004452  31.535300   0.007618   0.006780   2.879590   5.113200   2.021640   1.448780  -0.021272   8.081370  -1.608100  -2.028130   1.681290  -0.000000   0.000000   0.000000   2.023070   0.582341  -4.085060   0.906579   4.195300  -4.545580  -2.414930  -2.659020  -2.834550   0.000000   0.000000  -0.000000
 -0.075883  89.550500   2.696210  -2.179980  -2.212770  -0.424452   1.137870   2.759540  -0.915525   2.323830   5.499960  -1.889070   0.696092   0.323983  -0.002531   1.138580   0.656201   5.235570  -5.088190   1.828390   1.038920 -71.094000  14.109800  -5.605000  -2.223120  -3.657390  -9.314310   5.360160  -9.616950   7.774630  42.384900  28.660100 -62.536600 -21.610700  -0.011575  -0.000483  -5.805380  -0.005275  -0.002402 -32.271000   5.968610  -9.349690 -26.801600  -0.002939  -0.000499 -18.761100  -0.001453  -0.000405 -28.097300   2.234370  -4.176200 -33.263300  -0.002504  -0.007574 -22.153300  -0.000559  -0.000503 -28.134300  -0.460503   0.861121 -32.943500  -0.003598  -0.001908 -21.940400   0.000142  -0.004921 -32.298200  -0.521822   0.825395 -48.452800  -0.001129  -0.002061 -32.269600   0.000322  -0.010688   3.874450  -0.632648   7.101470  73.902200   6.502230   1.810090   1.294260  -3.346880   6.265120  -9.593920  -9.337380   3.550570 -40.343500  33.239500  67.692500  28.374300   0.002986  -0.003564   9.191740   0.004522  -0.000242  29.747400   7.064220  12.144500  24.954600  -0.001162   0.009242  17.468200   0.000075   0.000757  27.387500   4.980930   9.513750  30.796900  -0.007144   0.002777  20.510700  -0.009422   0.002488  27.639800   2.814960   5.357590  30.622800  -0.009994   0.000985  20.394800   0.007060   0.003346  31.588400   0.960296   1.561430  47.402000   0.004679   0.004452  31.569700   0.007614   0.006771   2.902680   5.120510   2.021690   1.449090  -0.000883   8.091960  -1.624850  -2.031260   1.668810   0.000000   0.000000  -0.000000   2.043740   0.601568  -4.088550   0.906306   4.191270  -4.545530  -2.429990  -2.650740  -2.829810   0.000000   0.000000  -0.000000
 -0.096675  89.550500   2.687780  -2.183420  -2.232640  -0.424634   1.145600   2.781180  -0.924248   2.340150   5.542920  -1.907410   0.686755   0.323441  -0.002529   1.128470   0.656243   5.293480  -5.108660   1.818050   1.076760 -71.101000  14.054200  -5.617870  -2.218530  -3.570090  -9.456020   5.406580  -9.614350   7.775140  42.408500  28.734200 -62.536700 -21.622400  -0.011590  -0.000484  -5.811230  -0.005274  -0.002409 -32.276000   5.946610  -9.314960 -26.802100  -0.002902  -0.000483 -18.761500  -0.001511  -0.000395 -28.099100   2.221100  -4.151390 -33.261700  -0.002506  -0.007526 -22.152200  -0.000579  -0.000476 -28.136500  -0.471787   0.882144 -32.957000  -0.003614  -0.001847 -21.949400   0.000120  -0.004871 -32.302100  -0.534626   0.845422 -48.459000  -0.001153  -0.002004 -32.273700   0.000221  -0.010683   3.846970  -0.628389   7.169770  73.866400   6.621740   1.900330   1.290290  -3.225370   6.322870  -9.573970  -9.370840   3.553800 -40.437400  33.408900  67.873100  28.378300   0.002961  -0.003561   9.191520   0.004519  -0.000242  29.750400   7.077130  12.164400  24.959300  -0.001162   0.009214  17.471500   0.000118   0.000738  27.395500   4.987980   9.524040  30.854800  -0.007155   0.002769  20.549300  -0.009424   0.002469  27.651400   2.822370   5.369420  30.693400  -0.009993   0.000924  20.441800   0.007066   0.003336  31.635100   0.951422   1.544220  47.471700   0.004687   0.004451  31.616100   0.007609   0.006759   2.921620   5.111580   2.021560   1.449460   0.049508   8.100010  -1.641940  -2.051510   1.655720  -0.000000   0.000000   0.000000   2.063330   0.615863  -4.096500   0.905421   4.187000  -4.545960  -2.442390  -2.641220  -2.821420  -0.000000   0.000000   0.000000
